<svg version="1.1" id="Capa_1" xmlns="http://www.w3.org/2000/svg" x="0" y="0" viewBox="0 0 618.3 185.9" style="enable-background:new 0 0 618.3 185.9" xml:space="preserve">
  <style>
    .st0{fill:#f9b701}
	.st1{fill:#022f65}
  </style>
  <g id="g1044">
    <g id="g1024">
      <path id="path986" class="st1" d="M546.6 89.3c4 0 7.1-1.2 9.2-3.7 1.8-2.1 2.7-5 2.7-8.6s-.9-6.5-2.7-8.6c-2.1-2.5-5.2-3.7-9.2-3.7h-55.4v24.8h55.4v-.2zm2.3-38.1c11.9 0 20.1 3.9 24.6 11.6 2.2 3.9 3.3 8.6 3.3 14 0 11.1-4.3 18.7-13 22.7a35 35 0 0 1-15 3h-57.7v31.6h-17.5v-83l75.3.1z"/>
      <path id="path988" class="st1" d="M275.4 116.3c-6.4 0-11.5-1.8-15.2-5.3s-5.5-8.4-5.5-14.8c0-6.3 1.8-11.2 5.5-14.6 3.7-3.5 8.6-5.3 15-5.3h58.5v-3.1c0-4.3-1.6-6.9-4.8-7.8-1-.3-2.5-.4-4.5-.4h-65.5V51.2h69.8c6.9 0 12.4 1.8 16.4 5.4 2.5 2.2 4.2 4.8 5.1 7.8.6 2.2.9 8 .9 12v39.8l-75.7.1zm58.3-13.8V89.3h-55.9c-3.7 0-5.5 2.2-5.5 6.7 0 4.4 1.8 6.5 5.5 6.5h55.9z"/>
      <path id="path990" class="st0" d="M113.7 23.3c1.5-5.9-63.7-5-71.6 44.7-7.9 49.5 63.5 76.7 64.9 71.5 0 0-9.4-12.3-10.7-21.8-1.5-9.3-1.9-14-1.9-14s-6.7 4.2-21.7-4.1-16.2-18.9-15.9-18.9 9.4-9.5 16.9-12.6c7.6-3.1 13.2-3 13.2-3s-1.8-7.2.7-15.4c4.3-13.7 26.1-26.4 26.1-26.4"/>
      <path id="path992" class="st1" d="M112.6 39.5s8.5 12.3 8.6 17.9c0 5.8-4.8 16.5-4.3 18.2.4 1.6 10.5-9.5 19.2-9.5 9.9.2 15.6 8.7 15.6 8.7s-8.2 17.3-12.6 17.6c-4.5.3-18.1-1.6-19-.8-.7.8 7.9 12.2 4.3 17.9-3.4 5.8-17.1 13.2-17.1 13.2s-5.2-9-5.8-14.8c-.6-5.6.7-18.5 1.5-19.8.9-1.4-7.4 12.3-16.8 8.4S65.3 82.9 65.3 82.9s15.4-10 18.7-10.3c3.3-.5 13.2-.8 13.2-.8s-3.9-9.8-1.5-15.1c-.1-7 15.2-18.5 16.9-17.2"/>
      <path id="path994" class="st0" d="M140.7 51.8a11 11 0 0 0 10.7-11.1c0-6.2-4.9-11.2-10.7-11.2s-10.7 5-10.7 11.2a11 11 0 0 0 10.7 11.1"/>
      <path id="path996" class="st1" d="M240.9 51.2v13.6h-44.3a35 35 0 0 0-3.5.2c-.7.2-1.5.6-2.4 1.3-1.5 1.4-2.3 3.6-2.3 6.6v2.9l52.4-.2v13.7l-52.4.2V134H171V89.5h-11V75.8h11v-7.2c0-3.1.3-5.6.8-7.6.6-2.1 1.7-4 3.5-5.8 1.7-1.7 3.6-2.9 5.7-3.3 2-.5 4.5-.7 7.5-.7h52.4z"/>
      <path id="path998" class="st1" d="M171.4 156.7c0 5.3-1.7 6.7-4.8 6.7-1.1 0-1.9-.2-2.5-.5l-.4 1.4c.6.3 1.8.6 2.9.6 3.4 0 6.5-1.7 6.5-7.8v-16.6h-1.7v16.2z"/>
      <path id="path1000" class="st1" d="M191.7 147.4H190v10.7c0 .7-.1 1.4-.3 1.9a5.7 5.7 0 0 1-5.1 3.5c-3.4 0-4.5-2.7-4.5-6.4v-9.6h-1.7v9.9c0 6.4 3.7 7.6 5.8 7.6 3 0 5-1.9 5.8-3.5h.1l.1 3.1h1.6l-.1-4.2v-13z"/>
      <path id="path1002" class="st1" d="M197.3 164.5h1.7v-10.6l.2-1.5c.7-2.2 2.7-4 5.1-4 3.5 0 4.7 2.8 4.7 5.9v10.1h1.7v-10.3c0-6.4-4.3-7.2-6-7.2-2.8 0-5 1.5-5.9 3.5h-.1l-.1-3.1H197l.1 4.1v13.1h.2z"/>
      <path id="path1004" class="st1" d="M216.9 144.3v3.1H214v1.4h2.9v10.8c0 1.7.3 3.2 1.1 4.1.6.8 1.7 1.2 2.9 1.2 1 0 1.8-.2 2.4-.4l-.2-1.3c-.4.1-1.1.3-2 .3-1.8 0-2.5-1.4-2.5-3.5v-11.1h4.9v-1.4h-4.9v-3.8l-1.7.6z"/>
      <path id="path1006" class="st1" d="M233.5 163.5c-3.5 0-6.2-3.2-6.2-7.5 0-3.7 2-7.6 6.3-7.6 4.5 0 6.3 4.3 6.3 7.4 0 4.5-2.8 7.7-6.4 7.7zm-.1 1.4c3.8 0 8.2-2.7 8.2-9.1 0-5.2-3.2-8.8-7.9-8.8-4.2 0-8.1 3.2-8.1 9.1 0 5.3 3.4 8.8 7.8 8.8z"/>
      <path id="path1008" class="st1" d="M244.5 163.7c1.1.7 2.7 1.2 4.3 1.2 3.5 0 5.8-2 5.8-4.9 0-2.6-1.6-4-4.4-5.1-2.3-1-3.5-1.7-3.5-3.5 0-1.6 1.1-3 3.3-3a6 6 0 0 1 3.4 1l.6-1.4a6.9 6.9 0 0 0-3.8-1.1c-3.3 0-5.3 2.1-5.3 4.6 0 2.1 1.5 3.6 4.3 4.7 2.5 1 3.6 2 3.6 3.9 0 1.8-1.3 3.2-4 3.2-1.5 0-2.9-.6-3.8-1.2l-.5 1.6z"/>
      <path id="path1010" class="st1" d="M277.8 162.4c-.9.4-2.2 1-4.3 1-4 0-6.8-2.9-6.8-7.4 0-4 2.4-7.5 6.9-7.5 1.9 0 3.2.5 4 1l.6-1.4a8.3 8.3 0 0 0-4.5-1.1c-5.1 0-8.8 3.7-8.8 9.1 0 5.1 3.3 8.7 8.2 8.7 2.5 0 4.3-.7 5-1.1l-.3-1.3z"/>
      <path id="path1012" class="st1" d="M288.8 163.5c-3.5 0-6.2-3.2-6.2-7.5 0-3.7 2-7.6 6.3-7.6 4.5 0 6.3 4.3 6.3 7.4 0 4.5-2.8 7.7-6.4 7.7zm-.1 1.4c3.8 0 8.2-2.7 8.2-9.1 0-5.2-3.2-8.8-7.9-8.8-4.2 0-8.1 3.2-8.1 9.1 0 5.3 3.4 8.8 7.8 8.8z"/>
      <path id="path1014" class="st1" d="M301.1 164.5h1.7v-10.6l.2-1.5c.7-2.2 2.7-4 5.1-4 3.5 0 4.7 2.8 4.7 5.9v10.1h1.7v-10.3c0-6.4-4.3-7.2-6-7.2-2.8 0-5 1.5-5.9 3.5h-.1l-.1-3.1H301l.1 4.1v13.1z"/>
      <path id="path1016" class="st1" d="M320.7 144.3v3.1h-2.9v1.4h2.9v10.8c0 1.7.3 3.2 1.1 4.1.6.8 1.7 1.2 2.9 1.2 1 0 1.8-.2 2.4-.4l-.2-1.3c-.4.1-1.1.3-2 .3-1.8 0-2.5-1.4-2.5-3.5v-11.1h4.9v-1.4h-4.9v-3.8l-1.7.6z"/>
      <path id="path1018" class="st1" d="M330.9 164.5h1.7v-9.4l.1-1.6c.5-2.7 2.1-4.8 4.5-4.8h.8v-1.6l-.7-.1c-2.3 0-4.1 1.7-4.8 3.8h-.1l-.1-3.5h-1.6l.1 5.1v12.1h.1z"/>
      <path id="path1020" class="st1" d="M350.3 159c0 .3 0 .7-.2 1a5.1 5.1 0 0 1-5.1 3.4c-1.8 0-3.4-1.1-3.4-3.6 0-4.1 4.9-4.7 8.7-4.6v3.8zm1.7-5.3c0-3-1-6.7-5.9-6.7-1.5 0-3.5.4-5 1.5l.5 1.2a7.3 7.3 0 0 1 4.3-1.3c4.1 0 4.4 3.4 4.4 5v.5c-7-.1-10.4 2.3-10.4 6.3 0 2.3 1.6 4.7 5 4.7 2.7 0 4.6-1.5 5.5-2.8h.1l.3 2.5h1.6c-.2-1.3-.2-2.7-.2-4.1v-6.8h-.2z"/>
      <path id="path1022" class="st1" d="M365.3 154.4c.3-2.6 1.9-6 5.7-6 4.1 0 5.1 3.6 5.1 6h-10.8zm12.5 1.4.1-1c0-2.5-1.1-7.7-6.7-7.7-4.4 0-7.7 3.6-7.7 9.3 0 5 3.1 8.6 8 8.6 3 0 4.7-.7 5.4-1.1l-.4-1.3c-1 .5-2.2 1-4.7 1-3.5 0-6.5-2.2-6.5-7.6h12.5v-.2z"/>
    </g>
    <path id="rect1026" class="st1" d="M382.1 139.2h1.7v25.3h-1.7z"/>
    <g id="g1042">
      <path id="path1028" class="st1" d="M408.5 161.5a9 9 0 0 1-3.8.8c-3.4 0-6-2.5-6-6.4 0-3.6 2.1-6.5 6.1-6.5 1.7 0 2.9.4 3.6.8l.7-2.4c-.9-.5-2.5-.9-4.3-.9-5.6 0-9.3 3.9-9.3 9.2s3.4 8.8 8.6 8.8c2.3 0 4.1-.6 5-1l-.6-2.4z"/>
      <path id="path1030" class="st1" d="m419.8 139.8-3.1 5.1h2.2l4.3-5.1h-3.4zm1.9 18.9-.1 1c-.5 1.5-2 2.9-4.2 2.9-1.6 0-2.9-.9-2.9-3 0-3.3 3.9-4 7.3-3.9l-.1 3zm3-4.8c0-3.4-1.3-7-6.6-7a11 11 0 0 0-5.7 1.5l.7 2.1a8.5 8.5 0 0 1 4.5-1.3c3.5 0 3.9 2.6 3.9 4v.4c-6.7 0-10.4 2.2-10.4 6.4 0 2.5 1.8 5 5.3 5 2.5 0 4.3-1.2 5.3-2.6h.1l.3 2.2h2.8c-.2-1.2-.2-2.6-.2-4.1v-6.6z"/>
      <path id="path1032" class="st1" d="M429.7 164.5h3.1v-10.4l.2-1.5c.6-1.7 2.2-3.2 4.2-3.2 3 0 4 2.3 4 5.1v9.9h3.1v-10.3c0-5.9-3.7-7.3-6.1-7.3a6.5 6.5 0 0 0-5.7 3.2h-.1l-.2-2.9h-2.8l.1 4.7v12.7h.2z"/>
      <path id="path1034" class="st1" d="M461.1 161.5a9 9 0 0 1-3.8.8c-3.4 0-6-2.5-6-6.4 0-3.6 2.1-6.5 6.1-6.5 1.7 0 2.9.4 3.6.8l.7-2.4c-.9-.5-2.5-.9-4.3-.9-5.6 0-9.3 3.9-9.3 9.2s3.4 8.8 8.6 8.8c2.3 0 4.1-.6 5-1l-.6-2.4z"/>
      <path id="path1036" class="st1" d="M466.7 154.2c.2-2.2 1.6-5.1 4.8-5.1 3.5 0 4.4 3.1 4.3 5.1h-9.1zm12.1 2.3.1-1.5c0-3.2-1.5-8.1-7.1-8.1-5 0-8.1 4.1-8.1 9.3s3.2 8.7 8.5 8.7c2.7 0 4.7-.6 5.8-1.1l-.6-2.2a11 11 0 0 1-4.8.9c-3.2 0-5.8-1.7-5.9-6h12.1z"/>
      <path id="path1038" class="st1" d="M482.7 164.5h3.1v-9.2l.1-1.5c.4-2.4 2-4 4.2-4l1.1.1v-3l-.9-.1c-2.1 0-4 1.5-4.8 3.8h-.1l-.1-3.4h-2.7l.1 5.4v11.9z"/>
      <path id="path1040" class="st1" d="M397.6 116.3c-13.4 0-22-5.4-25.8-16.3a39 39 0 0 1-2.2-13.2V51.2h19V85a14 14 0 0 0 4.2 10.7c2.2 2.1 5.4 3.1 9.6 3.1h54.7v17.5h-59.5z"/>
    </g>
  </g>
</svg>
