<svg xmlns="http://www.w3.org/2000/svg" id="Layer_1" x="0" y="0" viewBox="0 0 282.22 184.45" style="enable-background:new 0 0 282.22 184.45" xml:space="preserve">
  <style>
    .st0{fill:#112248}.st1{fill:#3a3a3c}
  </style>
  <path class="st0" d="M62.09 55.82h12.28v32.32l.03 1.51c0 2.15-.46 4.19-1.37 6.14-.91 1.94-2.13 3.52-3.64 4.72s-3.44 2.07-5.77 2.61c-2.33.54-5 .81-8.01.81-6.88 0-11.6-1.03-14.16-3.09-2.57-2.06-3.85-4.82-3.85-8.28 0-.43.02-1.01.06-1.74l12.73 1.45c.32 1.18.82 2 1.48 2.45.97.67 2.18 1 3.64 1 1.89 0 3.3-.5 4.24-1.51s1.4-2.77 1.4-5.29v-5.19c-1.29 1.53-2.58 2.63-3.87 3.32-2.02 1.07-4.2 1.61-6.54 1.61-4.58 0-8.27-2-11.09-5.99-2-2.84-3-6.58-3-11.25 0-5.33 1.29-9.39 3.87-12.18s5.95-4.19 10.12-4.19c2.66 0 4.86.45 6.59 1.35 1.73.9 3.35 2.4 4.85 4.48v-5.06zm-12.35 16.6c0 2.47.53 4.3 1.58 5.5 1.05 1.19 2.44 1.79 4.16 1.79 1.63 0 3-.62 4.11-1.85 1.11-1.24 1.66-3.1 1.66-5.59s-.58-4.4-1.74-5.72c-1.16-1.32-2.58-1.98-4.25-1.98s-3.01.61-4.01 1.82-1.51 3.21-1.51 6.03zM83.15 55.82h12.28v5.61c1.18-2.43 2.4-4.1 3.66-5.01 1.26-.91 2.81-1.37 4.66-1.37 1.93 0 4.05.6 6.35 1.8l-4.06 9.35c-1.55-.64-2.77-.97-3.67-.97-1.72 0-3.05.71-4 2.13-1.35 2-2.03 5.74-2.03 11.21v11.47H83.15V55.82zM124.94 66.91l-12.54-1.32c.47-2.19 1.15-3.92 2.05-5.17.89-1.26 2.18-2.35 3.85-3.27 1.2-.67 2.86-1.18 4.96-1.55 2.11-.37 4.38-.55 6.83-.55 3.93 0 7.09.22 9.47.66 2.38.44 4.37 1.36 5.96 2.76 1.12.97 2 2.34 2.64 4.11.64 1.77.97 3.46.97 5.08v15.11c0 1.61.1 2.87.31 3.79s.65 2.08 1.34 3.5h-12.31c-.5-.88-.82-1.55-.97-2.01-.15-.46-.3-1.19-.45-2.18-1.72 1.65-3.43 2.84-5.12 3.54-2.32.95-5.02 1.42-8.09 1.42-4.08 0-7.18-.95-9.3-2.84-2.12-1.89-3.17-4.22-3.17-6.99 0-2.6.76-4.74 2.29-6.41 1.53-1.68 4.34-2.92 8.44-3.74 4.92-.99 8.11-1.68 9.57-2.08 1.46-.4 3.01-.92 4.64-1.56 0-1.61-.33-2.74-1-3.38-.67-.64-1.84-.97-3.51-.97-2.15 0-3.76.34-4.83 1.03-.84.52-1.52 1.53-2.03 3.02zm11.37 6.89c-1.8.64-3.69 1.21-5.64 1.71-2.66.71-4.35 1.41-5.06 2.09-.73.71-1.1 1.51-1.1 2.42 0 1.03.36 1.88 1.08 2.53.72.66 1.78.98 3.17.98 1.46 0 2.82-.35 4.08-1.06 1.26-.71 2.15-1.57 2.67-2.59.53-1.02.79-2.35.79-3.98v-2.1zM151.55 55.82h13.65l6.64 21.69 6.89-21.69h13.24l-14.55 34.22h-11.63l-14.24-34.22zM195.75 42.8h13.12v8.93h-13.12V42.8zm0 13.02h13.12v34.22h-13.12V55.82zM232.61 42.8v13.02h7.22v9.6h-7.22v12.12c0 1.46.14 2.42.42 2.89.43.73 1.18 1.09 2.26 1.09.97 0 2.32-.28 4.06-.84l.97 9.05c-3.24.71-6.27 1.06-9.09 1.06-3.27 0-5.67-.42-7.22-1.25s-2.69-2.11-3.43-3.81-1.11-4.47-1.11-8.29V65.42h-4.83v-9.6h4.83v-6.28l13.14-6.74zM241.84 55.82h13.84l7.06 22.78 6.56-22.78h12.92l-13.58 36.57c-1.55 4.17-3.12 6.99-4.74 8.45-2.28 2.06-5.75 3.1-10.4 3.1-1.89 0-4.81-.26-8.76-.77l-1.03-9.15c1.89.6 3.99.9 6.31.9 1.54 0 2.79-.36 3.75-1.06.96-.71 1.77-1.98 2.43-3.81l-14.36-34.23z"/>
  <path class="st1" d="M85.33 101.02c1.28-.23 3.05-.41 5.45-.41 2.61 0 4.53.55 5.77 1.59 1.16.96 1.91 2.5 1.91 4.32 0 1.86-.58 3.39-1.68 4.44-1.42 1.42-3.65 2.09-6.18 2.09-.67 0-1.28-.03-1.74-.12v7.37h-3.54v-19.28zm3.54 9.11c.44.12 1.02.15 1.74.15 2.67 0 4.29-1.31 4.29-3.6 0-2.18-1.51-3.34-3.97-3.34-.99 0-1.68.09-2.06.17v6.62zM107.49 101.02c1.33-.23 3.34-.41 5.4-.41 2.81 0 4.73.46 6.03 1.57 1.07.9 1.68 2.26 1.68 3.91 0 2.52-1.71 4.24-3.54 4.9v.09c1.39.52 2.23 1.89 2.73 3.77.61 2.44 1.13 4.7 1.54 5.45h-3.68c-.29-.58-.75-2.18-1.31-4.61-.55-2.55-1.48-3.36-3.51-3.42h-1.8v8.04h-3.54v-19.29zm3.54 8.65h2.12c2.41 0 3.92-1.28 3.92-3.22 0-2.15-1.51-3.13-3.83-3.13-1.13 0-1.86.09-2.2.17v6.18zM147.28 110.33c0 6.56-3.97 10.3-9.37 10.3-5.51 0-8.99-4.21-8.99-9.95 0-6 3.77-10.24 9.28-10.24 5.72 0 9.08 4.32 9.08 9.89zm-14.59.29c0 3.97 2 7.14 5.42 7.14 3.45 0 5.4-3.19 5.4-7.28 0-3.68-1.83-7.16-5.4-7.16-3.54-.01-5.42 3.27-5.42 7.3zM160.18 100.76h3.57v12.68c0 5.4-2.61 7.19-6.5 7.19-.99 0-2.23-.17-2.99-.46l.44-2.87c.58.17 1.36.35 2.2.35 2.03 0 3.28-.93 3.28-4.32v-12.57zM184.54 111.64h-7.37v5.74h8.24v2.93H173.6v-19.55h11.37v2.93h-7.8v5.05h7.37v2.9zM208.5 119.73c-.84.43-2.7.87-5.05.87-6.21 0-9.98-3.89-9.98-9.83 0-6.44 4.47-10.33 10.44-10.33 2.35 0 4.03.49 4.76.87l-.78 2.84c-.93-.41-2.2-.75-3.83-.75-3.97 0-6.85 2.49-6.85 7.19 0 4.29 2.52 7.05 6.82 7.05 1.45 0 2.96-.29 3.89-.72l.58 2.81zM221.81 103.75h-5.57v-2.99H231v2.99h-5.63v16.56h-3.57v-16.56z"/>
  <linearGradient id="SVGID_1_" gradientUnits="userSpaceOnUse" x1="81.486" y1="0" x2="81.486" y2="184.451">
    <stop offset=".299" style="stop-color:#c1e2f3"/>
    <stop offset=".352" style="stop-color:#b9d9eb"/>
    <stop offset=".439" style="stop-color:#a2c0d5"/>
    <stop offset=".549" style="stop-color:#7d98b1"/>
    <stop offset=".677" style="stop-color:#4b6080"/>
    <stop offset=".797" style="stop-color:#16264c"/>
  </linearGradient>
  <path d="M55.07 0S14.51 37.21 29.4 95.26s64.74 66.98 74.42 69.21c9.67 2.23 32 4.47 59.16-6.33 0 0-33.12 32.37-80.37 25.3-47.26-7.07-76.28-45.4-81.49-79.63S8.18 25.67 55.07 0z" style="fill:url(#SVGID_1_)"/>
  <path class="st1" d="M240.38 116.13c0 2.34-1.84 4.18-4.23 4.18-2.37 0-4.25-1.84-4.25-4.18 0-2.29 1.89-4.13 4.25-4.13 2.39 0 4.23 1.84 4.23 4.13zm-7.43 0c0 1.84 1.36 3.3 3.22 3.3 1.81 0 3.15-1.46 3.15-3.27 0-1.84-1.33-3.32-3.17-3.32s-3.2 1.48-3.2 3.29zm2.54 2.17h-.96v-4.13c.38-.08.91-.13 1.59-.13.78 0 1.13.13 1.44.3.23.18.4.5.4.91 0 .45-.35.81-.86.96v.05c.4.15.63.45.75 1.01.13.63.2.88.3 1.03h-1.03c-.13-.15-.2-.53-.33-1.01-.08-.45-.33-.65-.86-.65h-.45v1.66zm.03-2.34h.45c.53 0 .96-.18.96-.6 0-.38-.28-.63-.88-.63-.25 0-.43.03-.53.05v1.18z"/>
</svg>
